<svg width="154" height="160" viewBox="0 0 154 160" fill="none" xmlns="http://www.w3.org/2000/svg">
<rect width="154" height="160" fill="white"/>
<g clip-path="url(#clip0_1_19)">
<path d="M17.609 84.0662V57.3413H40.1619V84.0418" stroke="black" stroke-width="1.21809" stroke-miterlimit="10"/>
<path d="M46.9163 57.3413H62.6479C65.5408 57.3413 68.2206 59.0345 69.2986 61.7204C71.1989 66.4587 69.4996 69.5283 67.3862 71.3981C65.5043 73.0608 63.0316 73.8891 60.5223 73.9134C52.0931 73.9987 48.6399 73.883 48.6399 73.883V84.0418" stroke="black" stroke-width="1.21809" stroke-miterlimit="10"/>
<path d="M102.199 67.4819C100.695 61.2209 96.2854 58.7726 92.7773 57.8286C89.4763 56.9393 85.9134 57.2682 82.856 58.8091C77.5451 61.4767 76.4488 66.5622 76.5889 70.7403C76.7716 76.3191 80.2553 81.4168 85.6149 82.976C87.9658 83.6581 90.1828 83.5607 92.0464 83.1526C96.1879 82.2512 99.7326 79.4009 101.371 75.4847C103.155 71.2214 102.199 67.4819 102.199 67.4819Z" stroke="black" stroke-width="1.21809" stroke-miterlimit="10"/>
<path d="M135.727 67.3662C134.138 61.1722 129.472 58.7604 125.763 57.8225C122.273 56.9394 118.509 57.2682 115.275 58.7908C109.66 61.428 108.503 66.4526 108.649 70.588C108.844 76.106 112.523 81.1428 118.193 82.6837C120.678 83.3597 123.022 83.2622 124.996 82.8542C129.375 81.9589 133.126 79.1451 134.856 75.2716C136.732 71.0631 135.727 67.3662 135.727 67.3662Z" stroke="black" stroke-width="1.21809" stroke-miterlimit="10"/>
<path d="M122.316 88.9142V52" stroke="black" stroke-width="1.21809" stroke-miterlimit="10"/>
<path d="M33.4868 96.7465C32.5611 92.9521 29.8447 91.4661 27.6826 90.8936C25.6484 90.3515 23.4558 90.5525 21.5739 91.4843C18.3033 93.1044 17.6273 96.1801 17.7126 98.7198C17.8283 102.1 19.9721 105.194 23.2731 106.138C24.7227 106.552 26.0869 106.491 27.238 106.241C29.7899 105.693 31.9764 103.964 32.9813 101.594C34.0715 99.0182 33.4868 96.7465 33.4868 96.7465Z" stroke="black" stroke-width="1.21809" stroke-miterlimit="10"/>
<path d="M39.9671 107.052V90.6012H52.8362" stroke="black" stroke-width="1.21809" stroke-miterlimit="10"/>
<path d="M40.436 106.449H48.0613C49.7849 106.284 50.7472 105.346 51.277 104.457C51.7764 103.61 51.9652 102.63 51.947 101.655C51.9287 100.608 51.7338 99.8161 51.4536 99.207C50.9238 98.0437 49.7057 97.319 48.3962 97.319H40.503" stroke="black" stroke-width="1.21809" stroke-miterlimit="10"/>
<path d="M40.436 105.791L49.0845 97.2276" stroke="black" stroke-width="1.21809" stroke-miterlimit="10"/>
<path d="M58.5977 89.913V106.442H72.7032V89.913" stroke="black" stroke-width="1.21809" stroke-miterlimit="10"/>
<path d="M72.5692 90.2906L59.1641 105.974" stroke="black" stroke-width="1.21809" stroke-miterlimit="10"/>
<path d="M79.4758 89.913V106.497H89.1961C93.429 106.777 92.8869 101.942 92.8869 101.942C92.8504 98.7502 89.2387 98.1229 89.2387 98.1229" stroke="black" stroke-width="1.21809" stroke-miterlimit="10"/>
<path d="M80.0849 90.5282L87.5091 90.5343C89.6042 90.8631 91.4192 92.5197 91.3217 94.554C91.2365 96.4724 89.4763 97.6783 89.4763 97.6783" stroke="black" stroke-width="1.21809" stroke-miterlimit="10"/>
<path d="M79.9813 106.132L89.7321 97.4591" stroke="black" stroke-width="1.21809" stroke-miterlimit="10"/>
<path d="M98.7581 89.913V106.424H113.406L106.724 98.1351" stroke="black" stroke-width="1.21809" stroke-miterlimit="10"/>
<path d="M99.3672 105.84L112.809 90.5282H105.994" stroke="black" stroke-width="1.21809" stroke-miterlimit="10"/>
<path d="M119.618 106.363H135.995L128.077 91.2103L119.618 106.363Z" stroke="black" stroke-width="1.21809" stroke-miterlimit="10"/>
<path d="M61.7404 73.615L47.3791 57.5423" stroke="black" stroke-width="1.21809" stroke-miterlimit="10"/>
<g clip-path="url(#clip1_1_19)">
<path d="M17.609 84.0662V57.3413H40.1619V84.0418" stroke="black" stroke-width="1.21809" stroke-miterlimit="10"/>
<path d="M46.9163 57.3413H62.6479C65.5408 57.3413 68.2206 59.0345 69.2986 61.7204C71.1989 66.4587 69.4996 69.5283 67.3862 71.3981C65.5043 73.0608 63.0316 73.8891 60.5223 73.9134C52.0931 73.9987 48.6399 73.883 48.6399 73.883V84.0418" stroke="black" stroke-width="1.21809" stroke-miterlimit="10"/>
<path d="M102.199 67.4819C100.695 61.2209 96.2854 58.7726 92.7773 57.8286C89.4763 56.9393 85.9134 57.2682 82.856 58.8091C77.5451 61.4767 76.4488 66.5622 76.5889 70.7403C76.7716 76.3191 80.2553 81.4168 85.6149 82.976C87.9658 83.6581 90.1828 83.5607 92.0464 83.1526C96.1879 82.2512 99.7326 79.4009 101.371 75.4847C103.155 71.2214 102.199 67.4819 102.199 67.4819Z" stroke="black" stroke-width="1.21809" stroke-miterlimit="10"/>
<path d="M135.727 67.3662C134.138 61.1722 129.472 58.7604 125.763 57.8225C122.273 56.9394 118.509 57.2682 115.275 58.7908C109.66 61.428 108.503 66.4526 108.649 70.588C108.844 76.106 112.523 81.1428 118.193 82.6837C120.678 83.3597 123.022 83.2622 124.996 82.8542C129.375 81.9589 133.126 79.1451 134.856 75.2716C136.732 71.0631 135.727 67.3662 135.727 67.3662Z" stroke="black" stroke-width="1.21809" stroke-miterlimit="10"/>
<path d="M122.316 88.9142V52" stroke="black" stroke-width="1.21809" stroke-miterlimit="10"/>
<path d="M33.4868 96.7465C32.5611 92.9521 29.8447 91.4661 27.6826 90.8936C25.6484 90.3515 23.4558 90.5525 21.5739 91.4843C18.3033 93.1044 17.6273 96.1801 17.7126 98.7198C17.8283 102.1 19.9721 105.194 23.2731 106.138C24.7227 106.552 26.0869 106.491 27.238 106.241C29.7899 105.693 31.9764 103.964 32.9813 101.594C34.0715 99.0182 33.4868 96.7465 33.4868 96.7465Z" stroke="black" stroke-width="1.21809" stroke-miterlimit="10"/>
<path d="M39.9671 107.052V90.6012H52.8362" stroke="black" stroke-width="1.21809" stroke-miterlimit="10"/>
<path d="M40.436 106.449H48.0613C49.7849 106.284 50.7472 105.346 51.277 104.457C51.7764 103.61 51.9652 102.63 51.947 101.655C51.9287 100.608 51.7338 99.8161 51.4536 99.207C50.9238 98.0437 49.7057 97.319 48.3962 97.319H40.503" stroke="black" stroke-width="1.21809" stroke-miterlimit="10"/>
<path d="M40.436 105.791L49.0845 97.2276" stroke="black" stroke-width="1.21809" stroke-miterlimit="10"/>
<path d="M58.5977 89.913V106.442H72.7032V89.913" stroke="black" stroke-width="1.21809" stroke-miterlimit="10"/>
<path d="M72.5692 90.2906L59.1641 105.974" stroke="black" stroke-width="1.21809" stroke-miterlimit="10"/>
<path d="M79.4758 89.913V106.497H89.1961C93.429 106.777 92.8869 101.942 92.8869 101.942C92.8504 98.7502 89.2387 98.1229 89.2387 98.1229" stroke="black" stroke-width="1.21809" stroke-miterlimit="10"/>
<path d="M80.0849 90.5282L87.5091 90.5343C89.6042 90.8631 91.4192 92.5197 91.3217 94.554C91.2365 96.4724 89.4763 97.6783 89.4763 97.6783" stroke="black" stroke-width="1.21809" stroke-miterlimit="10"/>
<path d="M79.9813 106.132L89.7321 97.4591" stroke="black" stroke-width="1.21809" stroke-miterlimit="10"/>
<path d="M98.7581 89.913V106.424H113.406L106.724 98.1351" stroke="black" stroke-width="1.21809" stroke-miterlimit="10"/>
<path d="M99.3672 105.84L112.809 90.5282H105.994" stroke="black" stroke-width="1.21809" stroke-miterlimit="10"/>
<path d="M119.618 106.363H135.995L128.077 91.2103L119.618 106.363Z" stroke="black" stroke-width="1.21809" stroke-miterlimit="10"/>
<path d="M61.7404 73.615L47.3791 57.5423" stroke="black" stroke-width="1.21809" stroke-miterlimit="10"/>
</g>
<g clip-path="url(#clip2_1_19)">
<path d="M17.609 84.0662V57.3413H40.1619V84.0418" stroke="black" stroke-width="1.21809" stroke-miterlimit="10"/>
<path d="M46.9163 57.3413H62.6479C65.5408 57.3413 68.2206 59.0345 69.2986 61.7204C71.1989 66.4587 69.4996 69.5283 67.3862 71.3981C65.5043 73.0608 63.0316 73.8891 60.5223 73.9134C52.0931 73.9987 48.6399 73.883 48.6399 73.883V84.0418" stroke="black" stroke-width="1.21809" stroke-miterlimit="10"/>
<path d="M102.199 67.4819C100.695 61.2209 96.2854 58.7726 92.7773 57.8286C89.4763 56.9393 85.9134 57.2682 82.856 58.8091C77.5451 61.4767 76.4488 66.5622 76.5889 70.7403C76.7716 76.3191 80.2553 81.4168 85.6149 82.976C87.9658 83.6581 90.1828 83.5607 92.0464 83.1526C96.1879 82.2512 99.7326 79.4009 101.371 75.4847C103.155 71.2214 102.199 67.4819 102.199 67.4819Z" stroke="black" stroke-width="1.21809" stroke-miterlimit="10"/>
<path d="M135.727 67.3662C134.138 61.1722 129.472 58.7604 125.763 57.8225C122.273 56.9394 118.509 57.2682 115.275 58.7908C109.66 61.428 108.503 66.4526 108.649 70.588C108.844 76.106 112.523 81.1428 118.193 82.6837C120.678 83.3597 123.022 83.2622 124.996 82.8542C129.375 81.9589 133.126 79.1451 134.856 75.2716C136.732 71.0631 135.727 67.3662 135.727 67.3662Z" stroke="black" stroke-width="1.21809" stroke-miterlimit="10"/>
<path d="M122.316 88.9142V52" stroke="black" stroke-width="1.21809" stroke-miterlimit="10"/>
<path d="M33.4868 96.7465C32.5611 92.9521 29.8447 91.4661 27.6826 90.8936C25.6484 90.3515 23.4558 90.5525 21.5739 91.4843C18.3033 93.1044 17.6273 96.1801 17.7126 98.7198C17.8283 102.1 19.9721 105.194 23.2731 106.138C24.7227 106.552 26.0869 106.491 27.238 106.241C29.7899 105.693 31.9764 103.964 32.9813 101.594C34.0715 99.0182 33.4868 96.7465 33.4868 96.7465Z" stroke="black" stroke-width="1.21809" stroke-miterlimit="10"/>
<path d="M39.9671 107.052V90.6012H52.8362" stroke="black" stroke-width="1.21809" stroke-miterlimit="10"/>
<path d="M40.436 106.449H48.0613C49.7849 106.284 50.7472 105.346 51.277 104.457C51.7764 103.61 51.9652 102.63 51.947 101.655C51.9287 100.608 51.7338 99.8161 51.4536 99.207C50.9238 98.0437 49.7057 97.319 48.3962 97.319H40.503" stroke="black" stroke-width="1.21809" stroke-miterlimit="10"/>
<path d="M40.436 105.791L49.0845 97.2276" stroke="black" stroke-width="1.21809" stroke-miterlimit="10"/>
<path d="M58.5977 89.913V106.442H72.7032V89.913" stroke="black" stroke-width="1.21809" stroke-miterlimit="10"/>
<path d="M72.5692 90.2906L59.1641 105.974" stroke="black" stroke-width="1.21809" stroke-miterlimit="10"/>
<path d="M79.4758 89.913V106.497H89.1961C93.429 106.777 92.8869 101.942 92.8869 101.942C92.8504 98.7502 89.2387 98.1229 89.2387 98.1229" stroke="black" stroke-width="1.21809" stroke-miterlimit="10"/>
<path d="M80.0849 90.5282L87.5091 90.5343C89.6042 90.8631 91.4192 92.5197 91.3217 94.554C91.2365 96.4724 89.4763 97.6783 89.4763 97.6783" stroke="black" stroke-width="1.21809" stroke-miterlimit="10"/>
<path d="M79.9813 106.132L89.7321 97.4591" stroke="black" stroke-width="1.21809" stroke-miterlimit="10"/>
<path d="M98.7581 89.913V106.424H113.406L106.724 98.1351" stroke="black" stroke-width="1.21809" stroke-miterlimit="10"/>
<path d="M99.3672 105.84L112.809 90.5282H105.994" stroke="black" stroke-width="1.21809" stroke-miterlimit="10"/>
<path d="M119.618 106.363H135.995L128.077 91.2103L119.618 106.363Z" stroke="black" stroke-width="1.21809" stroke-miterlimit="10"/>
<path d="M61.7404 73.615L47.3791 57.5423" stroke="black" stroke-width="1.21809" stroke-miterlimit="10"/>
</g>
</g>
<defs>
<clipPath id="clip0_1_19">
<rect width="120" height="55.1185" fill="white" transform="translate(17 52)"/>
</clipPath>
<clipPath id="clip1_1_19">
<rect width="120" height="55.1185" fill="white" transform="translate(17 52)"/>
</clipPath>
<clipPath id="clip2_1_19">
<rect width="120" height="55.1185" fill="white" transform="translate(17 52)"/>
</clipPath>
</defs>
</svg>
